PathFileType	4	(X/Y/Z)	C:/Users/opensim2020/Desktop/walking_exp_matlab/subject02_walking04_straight_01.trc																																																																																																																												
DataRate	CameraRate	NumFrames	NumMarkers	Units	OrigDataRate	OrigDataStartFrame	OrigNumFrames																																																																																																																								
100	100	7	42	mm	100	840	302																																																																																																																								
Frame#	Time	LFHD			RFHD			LBHD			RBHD			C7			T10			CLAV			STRN			RBAK			LSHO			LUPA			LELB			LFRM			LWRA			LWRB			LFIN			RSHO			RUPA			RELB			RFRM			RWRA			RWRB			RFIN			LASI			RASI			LPSI			RPSI			LTHI			LKNE			LTIB			LANK			LHEE			LTOE			RTHI			RKNE			RTIB			RANK			RHEE			RTOE			*39			*40			*41		
		X1	Y1	Z1	X2	Y2	Z2	X3	Y3	Z3	X4	Y4	Z4	X5	Y5	Z5	X6	Y6	Z6	X7	Y7	Z7	X8	Y8	Z8	X9	Y9	Z9	X10	Y10	Z10	X11	Y11	Z11	X12	Y12	Z12	X13	Y13	Z13	X14	Y14	Z14	X15	Y15	Z15	X16	Y16	Z16	X17	Y17	Z17	X18	Y18	Z18	X19	Y19	Z19	X20	Y20	Z20	X21	Y21	Z21	X22	Y22	Z22	X23	Y23	Z23	X24	Y24	Z24	X25	Y25	Z25	X26	Y26	Z26	X27	Y27	Z27	X28	Y28	Z28	X29	Y29	Z29	X30	Y30	Z30	X31	Y31	Z31	X32	Y32	Z32	X33	Y33	Z33	X34	Y34	Z34	X35	Y35	Z35	X36	Y36	Z36	X37	Y37	Z37	X38	Y38	Z38	X39	Y39	Z39	X40	Y40	Z40	X41	Y41	Z41	X42	Y42	Z42
																																																																																																																															
114	1.13	-676.87323	1757.32544	-1086.71509	-678.6792	1738.47742	-943.45917	-781.20844	1648.30908	-1100.23145	-794.82172	1625.26624	-959.11639	-818.47827	1525.18066	-1027.94824	-881.54333	1254.11157	-1022.98474	-678.46692	1454.53552	-1038.7937	-632.83112	1280.65503	-1029.01465	-879.49121	1356.51013	-961.27521	-738.58215	1495.47522	-1209.94812	-736.49408	1294.18628	-1298.85071	-726.84515	1153.98218	-1315.74243	-696.82843	1024.93262	-1326.55017	-627.19238	910.49347	-1287.79663	-668.64063	905.33063	-1325.73462	-637.37415	847.59613	-1328.62634	-732.52209	1492.77966	-842.07275	-776.68793	1308.42236	-755.39423	-778.2774	1160.36267	-742.93896	-756.6554	1040.29236	-726.58771	-715.11224	912.19934	-749.61395	-762.48218	909.9671	-717.44617	-727.8197	846.32239	-716.86267	-650.48291	991.04376	-1157.41345	-655.48383	972.39545	-900.82263	-861.99792	1034.08325	-1079.87122	-868.07794	1028.74341	-965.38751	-707.17877	679.24323	-1209.05627	-734.61908	476.6152	-1176.08386	-787.09204	287.67432	-1174.15027	-780.94336	65.59616	-1133.2002	-817.617	37.55141	-1082.58655	-623.99469	31.8733	-1142.80444	-691.2381	669.15631	-822.4679	-664.05499	473.94785	-837.44403	-802.48224	356.01215	-840.41736	-930.02667	213.76065	-877.26868	-978.45361	184.56831	-941.78955	-861.35504	73.24998	-836.54364	-797.94666	1790.41504	-1001.87024	2845.13086	1033.78723	-3360.12842	NaN	NaN	NaN
115	1.14	-667.73645	1757.479	-1087.72021	-669.66711	1738.37732	-944.69464	-772.14777	1648.65015	-1101.5675	-786.13416	1625.33533	-960.55377	-809.68903	1525.57776	-1029.48572	-873.22986	1254.6936	-1024.77136	-669.81476	1454.64771	-1040.11414	-624.50739	1280.68884	-1030.68848	-870.9798	1356.69763	-963.14032	-729.31879	1496.11255	-1211.21301	-724.95581	1295.2312	-1300.50061	-713.31238	1155.22046	-1317.76611	-680.57373	1026.7439	-1328.20056	-608.42542	914.21051	-1288.70105	-649.94159	907.68292	-1327.08801	-617.27649	850.75677	-1329.69641	-724.05273	1493.13391	-843.51416	-769.34491	1308.89087	-756.76147	-771.46826	1160.66699	-744.24475	-750.4267	1040.66394	-727.96875	-709.3913	912.40094	-751.18213	-756.70496	910.30499	-718.95197	-721.98987	846.70569	-718.36749	-643.13062	991.4071	-1159.54639	-646.66766	973.89978	-903.02576	-854.5509	1034.15979	-1080.72241	-859.68127	1029.27124	-965.90887	-702.60529	678.83362	-1209.08569	-731.04968	476.28979	-1176.21301	-784.99438	287.66946	-1174.0022	-780.71283	65.87631	-1132.96838	-817.62494	37.84642	-1082.45276	-623.73065	31.69794	-1142.90491	-677.48456	671.09833	-823.87103	-645.78436	476.10104	-839.92139	-781.52759	354.73236	-842.34454	-904.94171	208.45175	-878.40802	-953.33856	177.30722	-942.42419	-830.56433	71.63808	-836.9248	-788.87134	1790.65552	-1003.04279	2845.10742	1033.85547	-3360.11011	NaN	NaN	NaN
116	1.15	-658.46063	1757.50415	-1088.66858	-660.83716	1738.49829	-945.77917	-763.25366	1649.1106	-1103.07434	-776.89557	1625.73962	-961.7876	-800.87134	1525.91577	-1030.86511	-864.89191	1255.07874	-1026.34009	-661.13525	1454.75366	-1041.37964	-616.18787	1280.68542	-1032.31421	-861.97955	1357.02539	-964.73975	-720.05255	1496.82434	-1212.41357	-713.45386	1296.35315	-1302.08691	-699.54883	1156.45142	-1320.01514	-664.38043	1028.58838	-1330.03931	-590.87463	917.46985	-1288.90234	-631.26746	910.23792	-1328.38708	-597.35773	853.96631	-1330.5896	-715.73779	1493.00964	-844.88574	-761.90735	1309.22339	-758.2511	-764.88934	1161.06213	-745.39301	-744.28729	1040.94202	-729.28375	-703.3822	912.68799	-752.5354	-750.88306	910.53864	-720.30603	-716.64105	846.99884	-719.7182	-636.16089	991.4375	-1161.37402	-637.82684	975.27832	-905.25073	-846.93317	1034.11218	-1081.03381	-851.27313	1029.8429	-966.15796	-697.89734	678.20868	-1209.24451	-727.26715	475.9212	-1176.20605	-782.65509	287.79895	-1173.87207	-780.44324	66.03352	-1132.71558	-817.48035	38.12193	-1082.22229	-623.50055	31.45928	-1143.01001	-663.23633	672.87091	-825.17316	-628.90015	478.66196	-842.26465	-760.4826	353.03366	-844.09393	-879.30847	202.63692	-879.32507	-927.37952	169.08485	-942.88922	-799.10974	69.58187	-837.65356	-779.66321	1790.86975	-1004.0802	2845.79614	1033.81873	-3356.98804	NaN	NaN	NaN
117	1.16	-649.12933	1757.67944	-1089.55579	-651.79364	1738.35217	-946.25562	-754.01941	1649.27539	-1103.85254	-768.05914	1626.12231	-962.78839	-792.11505	1526.16602	-1032.07922	-856.46582	1255.42285	-1027.63928	-652.57813	1454.81799	-1042.54675	-607.88141	1280.61108	-1033.83435	-854.03363	1357.55225	-966.23926	-710.95154	1497.44482	-1213.44531	-701.99249	1297.43506	-1303.5658	-685.97217	1157.70154	-1321.92236	-648.14319	1030.4353	-1331.49329	-572.91699	920.86816	-1289.66052	-612.87659	912.77557	-1329.4873	-577.71802	857.29047	-1331.41431	-707.28503	1492.82983	-846.1684	-753.9303	1309.39917	-759.62054	-758.40289	1161.3075	-746.55432	-737.98987	1041.02258	-730.55548	-697.44757	912.56561	-753.71527	-744.75903	910.60962	-721.66473	-710.46466	847.17157	-720.92242	-629.22223	991.33844	-1163.16919	-628.90845	976.5047	-907.51538	-839.25916	1033.99121	-1081.32361	-842.7959	1030.3916	-966.20068	-692.84845	677.54926	-1209.51404	-723.36682	475.53293	-1176.20105	-780.28534	287.90805	-1173.81018	-780.20245	66.0161	-1132.4563	-817.33276	38.35782	-1081.97791	-623.25958	31.30235	-1143.07007	-649.47833	674.68451	-826.40259	-610.74036	480.55795	-844.72406	-739.09241	350.79819	-845.60022	-852.95142	196.15617	-880.08044	-900.13495	160.45329	-943.16577	-767.13422	67.21619	-838.38733	-770.36743	1790.97534	-1004.9967	2845.78784	1033.70374	-3357.09375	NaN	NaN	NaN
118	1.17	-639.66998	1757.53174	-1090.2854	-642.27704	1738.12451	-947.40137	-744.92902	1649.57019	-1104.85071	-758.90015	1625.9458	-963.99915	-783.39264	1526.28955	-1033.2948	-848.09283	1255.64624	-1028.71191	-643.93781	1454.78906	-1043.66223	-599.53455	1280.52222	-1035.4043	-845.40997	1357.82031	-967.66498	-701.9472	1497.96045	-1214.41882	-690.591	1298.59619	-1305.26843	-672.60187	1158.93311	-1323.42212	-632.20618	1032.37695	-1332.93433	-554.50201	924.47852	-1291.11108	-594.54333	915.30511	-1330.58301	-558.4151	860.65326	-1332.18018	-698.71228	1492.66028	-847.25012	-746.59302	1309.45227	-760.96991	-751.05359	1161.22021	-747.55786	-731.56085	1041.1239	-731.70911	-691.05811	912.62756	-754.90503	-738.87854	910.53906	-722.77582	-704.40735	847.11621	-722.03223	-622.37915	991.05481	-1164.953	-619.97223	977.43903	-909.74719	-831.68365	1033.93726	-1081.38232	-834.3139	1031.0166	-966.12616	-687.66248	676.83087	-1209.83521	-719.49133	475.10785	-1176.08252	-777.96875	288.03842	-1173.59888	-779.92334	66.31863	-1132.17651	-817.14673	38.63956	-1081.68152	-623.07751	31.16712	-1143.16016	-635.84955	676.36316	-827.63043	-593.56299	482.73669	-847.02881	-717.67987	348.04706	-846.87091	-826.16095	189.16466	-880.49689	-872.48303	151.45735	-943.4043	-734.42468	64.844	-839.22998	-760.89539	1791.31067	-1005.89899	2845.82422	1033.78333	-3357.08472	NaN	NaN	NaN
119	1.18	-630.22894	1757.47119	-1090.94067	-633.13239	1737.82385	-948.00574	-735.77795	1649.89722	-1105.86182	-750.63037	1626.17615	-964.88434	-774.63165	1526.33167	-1034.40283	-839.69312	1255.79578	-1029.61328	-635.32684	1454.69568	-1044.69006	-591.17926	1280.40808	-1036.89209	-836.62988	1357.65479	-969.00189	-692.97473	1498.453	-1215.33228	-679.22729	1299.38708	-1306.32996	-659.15265	1160.14966	-1325.22046	-616.47632	1034.26465	-1333.98938	-536.90375	927.97644	-1291.79272	-576.62201	918.11877	-1331.34644	-539.35284	864.05554	-1332.84216	-690.25195	1492.26038	-848.23431	-739.54248	1309.16101	-761.96014	-744.45459	1161.29541	-748.56421	-724.5603	1040.82104	-732.58478	-684.73859	912.24384	-755.76532	-732.27417	910.42059	-723.89069	-697.5791	846.88672	-722.9989	-615.53247	990.48877	-1166.73718	-610.94647	978.02716	-911.91284	-824.01324	1033.89636	-1081.35864	-825.73438	1031.5929	-965.94537	-682.24805	676.12842	-1210.1449	-715.59637	474.71658	-1176.00049	-775.82373	288.23157	-1173.37671	-779.64087	66.53201	-1131.88464	-816.69171	38.65888	-1081.36877	-622.95947	31.22472	-1143.28308	-622.55408	678.16827	-828.75153	-576.94257	484.77484	-849.20764	-695.90588	345.02505	-847.85852	-798.42651	181.89946	-880.99292	-843.58972	141.54396	-943.44025	-700.92261	62.47851	-840.35956	-751.18976	1791.47754	-1006.5816	2845.81738	1033.93103	-3357.19043	NaN	NaN	NaN
120	1.19	-620.6474	1757.1366	-1091.48462	-623.63763	1737.41797	-948.70465	-726.6698	1650.11816	-1106.63623	-741.62329	1626.45105	-965.89233	-765.92035	1526.27222	-1035.36621	-831.20544	1255.88147	-1030.38818	-626.71259	1454.56592	-1045.70361	-582.703	1280.23108	-1038.37854	-828.59357	1357.7793	-970.12244	-684.09833	1498.79333	-1216.18152	-668.01862	1300.58069	-1307.89661	-645.901	1161.30566	-1326.64465	-600.75592	1036.26831	-1335.67419	-520.09418	931.2428	-1291.80127	-558.87213	920.87219	-1332.20215	-520.60828	867.45398	-1333.42224	-681.85254	1491.77942	-849.30328	-731.70282	1309.13074	-763.12866	-737.21423	1161.03552	-749.51544	-717.58221	1040.52173	-733.48926	-678.00659	912.07581	-756.58105	-725.72919	910.12762	-724.84991	-691.47913	846.66736	-723.8443	-608.5777	989.70142	-1168.44397	-601.86761	978.41998	-913.97717	-816.27448	1033.8595	-1081.26709	-817.20068	1032.14294	-965.75739	-676.73236	675.37457	-1210.26367	-711.80859	474.31879	-1175.82544	-773.82098	288.59012	-1173.17053	-779.35797	66.75111	-1131.6095	-816.48718	38.90712	-1080.9718	-622.67297	31.11155	-1143.3374	-609.33014	679.85217	-829.94385	-560.90125	486.73834	-851.29694	-674.44293	341.73077	-848.73218	-770.42511	174.75172	-881.31281	-815.07153	132.63281	-943.27441	-666.9101	60.31489	-841.69611	-741.60657	1791.68713	-1007.33948	2845.20483	1033.75476	-3360.18188	NaN	NaN	NaN
